<svg width="450" height="450" version="1.1" viewBox="0 0 450 450" xmlns="http://www.w3.org/2000/svg">
 <rect width="450" height="450" fill="#ef3828" fill-rule="evenodd" stroke-linejoin="bevel" stroke-width=".09706"/>
 <g>
  <g>
   <path d="m354.83 87.096-200.43 73.963h27.852l-1.4453 12.941h-8.7598l-12.971 109.67h-13.521l12.971-109.67h-8.8867l1.3027-11.666-3.8574 1.4238-1.1445 10.242h-8.7598l-12.971 109.67h-13.422l12.971-109.67h-4.4277l-18.553 6.8457-3.0293 102.82h-14.127l1.0566-23.602h-7.998l-3.9297 23.602h-6.8691l29.254 79.252 214.53-79.164c-6.2537-2.5-7.4241-8.637-6.9258-13.953 1.4535-15.506 10.303-87.937 10.824-92.619 0.2403-2.1591 2.3395-17.473 17.037-17.473 12.855 0 14.295 9.2562 13.465 16.273-4.2367 35.822-10.753 91.444-10.969 93.818-0.13633 1.5033-0.75911 3.7353-1.9277 6.0176l8.8144-3.252 13.189-111.51h13.998l0.46484 71.047 8.4024-71.047h6.0976zm-167.05 73.963h24.096l-1.4453 12.217h-10.574l-5.0176 42.432h10.594l-1.4453 12.217h-10.594l-5.0644 42.822h10.576l-1.4531 12.924h-24.174zm30.119 0h13.998l0.46484 71.047 8.4023-71.047h11.82l-14.502 122.61h-14.506l-0.59374-60.574-7.1641 60.574h-12.422zm40.105 0h31.168l-1.4453 12.941h-8.7598l-12.971 109.67h-13.521l12.971-109.67h-8.8867zm36.627 0h13.521l-12.379 104.67h-13.521zm34.787 11.592c-1.2627-0.0832-2.6229 0.6507-2.8379 2.3887-2.8046 22.674-9.1597 75.62-11.086 94.766-0.31019 3.083 4.4185 3.3964 4.8457 0 2.2082-17.555 7.4268-61.395 11.289-94.641 0.17777-1.5302-0.94827-2.4305-2.2109-2.5137zm57.047 0.15039-10.217 86.385 37.057-13.674zm-298.13 16.895-9.6699 57.256h6.7578zm-12.314 0.28907-39.359 14.523 24.658 66.797zm282.24 33.111-5.2852 44.682 5.7031-2.1055zm-76.482 46.709h13.521l-1.6406 13.865h-13.521z"/>
   <g fill-rule="evenodd" stroke-linejoin="bevel">
    <path d="m176.61 393.22v12.891h1.1628v-6.3594h7.6065v6.3594h1.1628v-12.891h-1.1628v5.6738h-7.6065v-5.6738z" stroke-width=".28468"/>
    <path d="m276.79 393.22v12.891h1.1627v-6.3594h7.6062v6.3594h1.1627v-12.891h-1.1627v5.6738h-7.6062v-5.6738z" stroke-width=".28467"/>
    <path d="m212.92 393.22v12.891h8.0742v-0.99219h-6.9024v-11.898z" stroke-width=".28579"/>
    <path d="m223.29 393.22v12.891h1.1719v-12.891z" stroke-width=".28579"/>
    <path d="m254.22 393.24v8.0866c0 5.0434 3.6729 5.0852 4.9297 5.0852s4.9297-0.0418 4.9297-5.0852v-8.0866h-1.2324v8.0866c0 1.6424-0.50227 2.5876-1.0957 3.1783-0.34014 0.33853-0.95937 0.78339-2.6016 0.78339s-2.2614-0.44486-2.6016-0.78339c-0.59343-0.59063-1.0957-1.5359-1.0957-3.1783v-8.0866z" stroke-width=".28511"/>
    <path d="m243.33 393.28v12.828h1.1719v-5.7344h3.3848c2.0893 0 4.2891-0.92038 4.2891-3.5469 0-2.9745-2.2383-3.5104-4.2891-3.5469h-4.5566zm1.1719 1.0508h3.3848c1.858 0 3.1094 0.46581 3.1094 2.4961 0 2.107-1.5973 2.5723-3.1094 2.5723h-3.3848v-0.01z" stroke-width=".28509"/>
    <path d="m201.21 393.3v12.828h1.1719v-5.9227h3.8008c2.5022 0 2.6191 1.6543 2.6191 3.0867v0.83984c0 1.7043 0.47266 1.9668 0.47266 1.9668h1.3828s-0.57617-0.26251-0.57617-1.9668v-0.83984c0-1.3008-0.17719-3.2472-1.7109-3.5215 1.2456-0.42696 2.0508-1.2968 2.0508-2.9238 0-3.4745-2.6035-3.5104-4.6543-3.5469zm1.1719 1.0508h3.3848c1.858 0 3.4746 0.11226 3.4746 2.4961 0 2.107-1.9625 2.3066-3.4746 2.3066h-3.3848z" stroke-width=".28509"/>
    <path d="m193.13 393.22-4.9531 12.891h1.1719l1.584-4.1211h5.7949l1.584 4.1211h1.1719l-4.9531-12.891h-0.22852-0.94336-0.22851zm0.70117 1.2285 2.5566 6.6543h-5.1152l2.5586-6.6543z" stroke-width=".17805"/>
    <path d="m227.72 393.22v12.891h8.5371v-1.0924h-7.3652v-5.0443h6.5684v-0.99219h-6.5684v-4.6695h7.3653v-1.0922h-7.3653z" stroke-width=".28579"/>
    <path d="m265.99 393.22v1.0859h3.9258v11.805h1.1719v-11.805h3.9258v-1.0859z" stroke-width=".28579"/>
   </g>
  </g>
  <path d="m168.87 392.9c-4.0721 0-5.6777 3.1023-5.6777 6.8245-1e-5 3.7222 1.5615 6.7402 5.6777 6.7402 2.6457 0 4.7771-1.2496 5.3891-4.6502h-1.2872c-0.52069 2.2581-2.261 3.4373-4.098 3.4373-3.3855 0-4.3501-2.9656-4.35-5.5273 1e-5 -2.7716 1.0992-5.678 4.35-5.678 1.789 0 3.667 0.69386 3.8493 2.958h1.4174c-0.35156-3.1742-2.8334-4.1045-5.2706-4.1045z" fill-rule="evenodd" stroke-linejoin="bevel" stroke-width=".23482"/>
 </g>
</svg>
